<?xml version="1.0" encoding="UTF-8"?>
<svg version="1.1" xmlns="http://www.w3.org/2000/svg" width="781" height="320">
<path d="M0 0 C3.02519433 1.99954524 5.2861842 3.79875468 7.51171875 6.66015625 C7.51171875 7.32015625 7.51171875 7.98015625 7.51171875 8.66015625 C8.99671875 9.15515625 8.99671875 9.15515625 10.51171875 9.66015625 C10.51171875 10.32015625 10.51171875 10.98015625 10.51171875 11.66015625 C11.50171875 11.99015625 12.49171875 12.32015625 13.51171875 12.66015625 C13.51171875 13.32015625 13.51171875 13.98015625 13.51171875 14.66015625 C14.50171875 14.99015625 15.49171875 15.32015625 16.51171875 15.66015625 C17.86558811 17.31018453 19.19850017 18.97759495 20.51171875 20.66015625 C21.50171875 21.32015625 22.49171875 21.98015625 23.51171875 22.66015625 C23.51171875 23.32015625 23.51171875 23.98015625 23.51171875 24.66015625 C24.50171875 24.99015625 25.49171875 25.32015625 26.51171875 25.66015625 C26.51171875 26.32015625 26.51171875 26.98015625 26.51171875 27.66015625 C27.50171875 27.99015625 28.49171875 28.32015625 29.51171875 28.66015625 C29.51171875 29.32015625 29.51171875 29.98015625 29.51171875 30.66015625 C30.50171875 30.99015625 31.49171875 31.32015625 32.51171875 31.66015625 C33.86558811 33.31018453 35.19850017 34.97759495 36.51171875 36.66015625 C37.50171875 37.32015625 38.49171875 37.98015625 39.51171875 38.66015625 C39.51171875 39.32015625 39.51171875 39.98015625 39.51171875 40.66015625 C40.50171875 40.99015625 41.49171875 41.32015625 42.51171875 41.66015625 C42.51171875 42.32015625 42.51171875 42.98015625 42.51171875 43.66015625 C43.50171875 43.99015625 44.49171875 44.32015625 45.51171875 44.66015625 C46.85067507 46.32230893 48.18302017 47.98979232 49.51171875 49.66015625 C50.50171875 50.48515625 51.49171875 51.31015625 52.51171875 52.16015625 C55.30848987 54.49079885 57.26024141 56.8276525 59.51171875 59.66015625 C60.27484375 60.25828125 61.03796875 60.85640625 61.82421875 61.47265625 C64.02330238 63.26260804 65.58389658 64.8332458 67.38671875 66.97265625 C73.31779187 73.93868173 80.00665596 80.23664198 86.51171875 86.66015625 C84.94708012 90.13323303 83.91190189 91.01490634 80.51171875 92.66015625 C80.18171875 93.65015625 79.85171875 94.64015625 79.51171875 95.66015625 C78.85171875 95.66015625 78.19171875 95.66015625 77.51171875 95.66015625 C77.27146973 96.22637695 77.0312207 96.79259766 76.78369141 97.37597656 C75.24976764 100.13056212 73.40445857 101.99265296 71.16015625 104.20703125 C70.309375 105.05136719 69.45859375 105.89570313 68.58203125 106.765625 C67.69257813 107.63832031 66.803125 108.51101562 65.88671875 109.41015625 C64.98953125 110.29832031 64.09234375 111.18648438 63.16796875 112.1015625 C60.95364871 114.29232594 58.7347944 116.47828388 56.51171875 118.66015625 C55.19171875 118.00015625 53.87171875 117.34015625 52.51171875 116.66015625 C52.51171875 116.00015625 52.51171875 115.34015625 52.51171875 114.66015625 C51.52171875 114.33015625 50.53171875 114.00015625 49.51171875 113.66015625 C49.51171875 113.00015625 49.51171875 112.34015625 49.51171875 111.66015625 C48.52171875 111.33015625 47.53171875 111.00015625 46.51171875 110.66015625 C45.14532533 109.02048415 43.81677685 107.34905497 42.51171875 105.66015625 C40.85942627 103.97686391 39.19097125 102.31622889 37.51171875 100.66015625 C36.10851798 99.25867005 34.70625652 97.85624305 33.3046875 96.453125 C32.55380859 95.70224609 31.80292969 94.95136719 31.02929688 94.17773438 C27.5234375 90.671875 24.01757812 87.16601562 20.51171875 83.66015625 C17.56128803 84.98543604 15.53201555 86.40910788 13.29125977 88.73291016 C12.68705704 89.3534024 12.08285431 89.97389465 11.46034241 90.6131897 C10.81858566 91.28095428 10.17682892 91.94871887 9.515625 92.63671875 C8.139104 94.04339175 6.76213725 95.44962865 5.38476562 96.85546875 C3.22241718 99.0736912 1.06419149 101.29555405 -1.08618164 103.52539062 C-3.1661639 105.67780062 -5.26142095 107.81434257 -7.359375 109.94921875 C-7.99910751 110.6210318 -8.63884003 111.29284485 -9.29795837 111.98501587 C-13.6743461 116.41064009 -13.6743461 116.41064009 -17.03198242 117.43994141 C-20.82006951 116.23736212 -23.19768686 113.66329226 -25.91796875 110.89453125 C-26.5125589 110.30472473 -27.10714905 109.71491821 -27.71975708 109.10723877 C-28.97134608 107.8590482 -30.21665902 106.60453709 -31.45605469 105.34423828 C-33.36006121 103.41342163 -35.28930951 101.51076153 -37.22265625 99.609375 C-38.43520061 98.39352747 -39.6461935 97.17613027 -40.85546875 95.95703125 C-41.72557083 95.1021109 -41.72557083 95.1021109 -42.61325073 94.22991943 C-44.20263672 92.59277344 -44.20263672 92.59277344 -46.48828125 89.66015625 C-46.13523294 86.62497111 -45.23387507 85.27854698 -43.48828125 82.66015625 C-42.82828125 82.66015625 -42.16828125 82.66015625 -41.48828125 82.66015625 C-40.99328125 81.17515625 -40.99328125 81.17515625 -40.48828125 79.66015625 C-38.83825297 78.30628689 -37.17084255 76.97337483 -35.48828125 75.66015625 C-34.49828125 74.17515625 -34.49828125 74.17515625 -33.48828125 72.66015625 C-32.82828125 72.66015625 -32.16828125 72.66015625 -31.48828125 72.66015625 C-31.24078125 72.04140625 -30.99328125 71.42265625 -30.73828125 70.78515625 C-29.26057363 68.27305329 -28.04872948 67.89908281 -25.48828125 66.66015625 C-24.99328125 65.17515625 -24.99328125 65.17515625 -24.48828125 63.66015625 C-22.86725157 61.94906936 -21.19324662 60.28762319 -19.48828125 58.66015625 C-18.15796875 57.26796875 -18.15796875 57.26796875 -16.80078125 55.84765625 C-14.48828125 53.66015625 -14.48828125 53.66015625 -12.48828125 53.66015625 C-12.68299236 51.71016496 -12.68299236 51.71016496 -13.48828125 49.66015625 C-15.47205795 48.37578891 -15.47205795 48.37578891 -17.48828125 47.66015625 C-17.89820313 48.09328125 -18.308125 48.52640625 -18.73046875 48.97265625 C-19.26929688 49.52953125 -19.808125 50.08640625 -20.36328125 50.66015625 C-20.89695312 51.21703125 -21.430625 51.77390625 -21.98046875 52.34765625 C-23.48828125 53.66015625 -23.48828125 53.66015625 -25.48828125 53.66015625 C-25.81828125 54.65015625 -26.14828125 55.64015625 -26.48828125 56.66015625 C-27.14828125 56.66015625 -27.80828125 56.66015625 -28.48828125 56.66015625 C-28.72240723 57.21662842 -28.9565332 57.77310059 -29.19775391 58.34643555 C-31.72723196 62.88140783 -35.75004434 66.3334317 -39.39160156 69.98901367 C-40.86393541 71.47331572 -42.31658755 72.97525884 -43.76953125 74.47851562 C-44.69507813 75.41115234 -45.620625 76.34378906 -46.57421875 77.3046875 C-47.42032715 78.16425049 -48.26643555 79.02381348 -49.13818359 79.90942383 C-51.48828125 81.66015625 -51.48828125 81.66015625 -53.59057617 81.62548828 C-55.7605708 80.52164694 -57.09927763 79.34531829 -58.765625 77.5703125 C-59.36181641 76.95091797 -59.95800781 76.33152344 -60.57226562 75.69335938 C-61.80415972 74.38357946 -63.03593132 73.07368433 -64.26757812 71.76367188 C-68.67690312 67.14972159 -68.67690312 67.14972159 -74.48828125 64.66015625 C-75.14828125 64.66015625 -75.80828125 64.66015625 -76.48828125 64.66015625 C-76.17890625 65.58828125 -75.86953125 66.51640625 -75.55078125 67.47265625 C-74.86328125 69.53515625 -74.17578125 71.59765625 -73.48828125 73.66015625 C-72.49828125 73.99015625 -71.50828125 74.32015625 -70.48828125 74.66015625 C-70.48828125 75.32015625 -70.48828125 75.98015625 -70.48828125 76.66015625 C-69.49828125 76.99015625 -68.50828125 77.32015625 -67.48828125 77.66015625 C-67.48828125 78.32015625 -67.48828125 78.98015625 -67.48828125 79.66015625 C-66.16828125 80.32015625 -64.84828125 80.98015625 -63.48828125 81.66015625 C-63.48828125 82.32015625 -63.48828125 82.98015625 -63.48828125 83.66015625 C-62.49828125 83.99015625 -61.50828125 84.32015625 -60.48828125 84.66015625 C-60.48828125 85.32015625 -60.48828125 85.98015625 -60.48828125 86.66015625 C-59.49828125 86.99015625 -58.50828125 87.32015625 -57.48828125 87.66015625 C-57.48828125 88.32015625 -57.48828125 88.98015625 -57.48828125 89.66015625 C-56.49828125 89.99015625 -55.50828125 90.32015625 -54.48828125 90.66015625 C-54.48828125 91.32015625 -54.48828125 91.98015625 -54.48828125 92.66015625 C-53.59109375 93.06234375 -53.59109375 93.06234375 -52.67578125 93.47265625 C-50.48980271 94.65933031 -49.07495531 95.75614738 -47.48828125 97.66015625 C-47.48828125 98.32015625 -47.48828125 98.98015625 -47.48828125 99.66015625 C-46.00328125 100.15515625 -46.00328125 100.15515625 -44.48828125 100.66015625 C-44.48828125 101.32015625 -44.48828125 101.98015625 -44.48828125 102.66015625 C-43.00328125 103.15515625 -43.00328125 103.15515625 -41.48828125 103.66015625 C-41.48828125 104.32015625 -41.48828125 104.98015625 -41.48828125 105.66015625 C-40.00328125 106.15515625 -40.00328125 106.15515625 -38.48828125 106.66015625 C-38.48828125 107.32015625 -38.48828125 107.98015625 -38.48828125 108.66015625 C-37.00328125 109.15515625 -37.00328125 109.15515625 -35.48828125 109.66015625 C-33.30078125 111.59765625 -33.30078125 111.59765625 -31.48828125 113.66015625 C-31.48828125 114.32015625 -31.48828125 114.98015625 -31.48828125 115.66015625 C-30.00328125 116.15515625 -30.00328125 116.15515625 -28.48828125 116.66015625 C-27.13441189 118.31018453 -25.80149983 119.97759495 -24.48828125 121.66015625 C-20.45673889 124.34785116 -17.22619326 124.45658057 -12.48828125 123.66015625 C-9.15089143 121.57344394 -9.15089143 121.57344394 -6.48828125 118.66015625 C-5.72515625 117.91765625 -4.96203125 117.17515625 -4.17578125 116.41015625 C-2.84546875 115.04890625 -2.84546875 115.04890625 -1.48828125 113.66015625 C-0.7715625 112.95375 -0.05484375 112.24734375 0.68359375 111.51953125 C4.53711424 107.71638358 8.21713131 103.9684629 11.51171875 99.66015625 C13.13671875 97.84765625 13.13671875 97.84765625 14.51171875 96.66015625 C15.17171875 96.66015625 15.83171875 96.66015625 16.51171875 96.66015625 C16.84171875 95.67015625 17.17171875 94.68015625 17.51171875 93.66015625 C21.79978748 94.13660833 23.77819362 95.31918109 26.51171875 98.66015625 C26.51171875 99.32015625 26.51171875 99.98015625 26.51171875 100.66015625 C27.17171875 100.66015625 27.83171875 100.66015625 28.51171875 100.66015625 C29.86558811 102.31018453 31.19850017 103.97759495 32.51171875 105.66015625 C33.17171875 105.99015625 33.83171875 106.32015625 34.51171875 106.66015625 C34.51171875 107.32015625 34.51171875 107.98015625 34.51171875 108.66015625 C35.10984375 108.92828125 35.70796875 109.19640625 36.32421875 109.47265625 C38.51019729 110.65933031 39.92504469 111.75614738 41.51171875 113.66015625 C41.51171875 114.32015625 41.51171875 114.98015625 41.51171875 115.66015625 C42.06859375 115.88703125 42.62546875 116.11390625 43.19921875 116.34765625 C46.14418559 118.01912391 48.19328419 120.21291977 50.51171875 122.66015625 C49.20557933 126.57857452 47.68042027 128.98656434 44.51171875 131.66015625 C43.85171875 131.66015625 43.19171875 131.66015625 42.51171875 131.66015625 C42.18171875 132.65015625 41.85171875 133.64015625 41.51171875 134.66015625 C40.85171875 134.66015625 40.19171875 134.66015625 39.51171875 134.66015625 C39.28589111 135.21195557 39.06006348 135.76375488 38.82739258 136.33227539 C37.11400046 139.36385709 34.937437 141.45790484 32.4609375 143.90625 C31.96511673 144.39924088 31.46929596 144.89223175 30.95845032 145.40016174 C29.37669144 146.97077021 27.7881319 148.53428911 26.19921875 150.09765625 C25.14211682 151.14471677 24.08547139 152.19223838 23.02929688 153.24023438 C21.07531197 155.17794421 19.11824962 157.11233688 17.15893555 159.04467773 C12.18537697 163.95349384 12.18537697 163.95349384 7.32421875 168.97265625 C5.51171875 170.66015625 5.51171875 170.66015625 3.51171875 170.66015625 C3.18171875 171.65015625 2.85171875 172.64015625 2.51171875 173.66015625 C1.85171875 173.66015625 1.19171875 173.66015625 0.51171875 173.66015625 C0.51171875 174.32015625 0.51171875 174.98015625 0.51171875 175.66015625 C-8.00798834 180.64338115 -16.45806231 181.78102201 -26.12109375 179.52734375 C-30.13888184 178.05548079 -33.50570019 175.72061149 -36.48828125 172.66015625 C-36.81828125 171.67015625 -37.14828125 170.68015625 -37.48828125 169.66015625 C-38.04805664 169.38365234 -38.60783203 169.10714844 -39.18457031 168.82226562 C-42.46233224 167.16879522 -44.78939841 164.64434676 -47.34765625 162.06640625 C-47.89689758 161.51907837 -48.44613892 160.97175049 -49.01202393 160.40783691 C-50.16753984 159.25367845 -51.3205481 158.09700458 -52.47119141 156.93798828 C-54.23901625 155.15941679 -56.01730255 153.39180862 -57.796875 151.625 C-58.91861096 150.50194317 -60.03972676 149.37826649 -61.16015625 148.25390625 C-61.96160065 147.45853455 -61.96160065 147.45853455 -62.77923584 146.64709473 C-66.48828125 142.89009479 -66.48828125 142.89009479 -66.48828125 140.66015625 C-67.0503125 140.42296875 -67.61234375 140.18578125 -68.19140625 139.94140625 C-71.00722167 138.37067928 -72.96783541 136.44544161 -75.23828125 134.16015625 C-76.0375 133.36609375 -76.83671875 132.57203125 -77.66015625 131.75390625 C-79.48828125 129.66015625 -79.48828125 129.66015625 -79.48828125 127.66015625 C-80.47828125 127.33015625 -81.46828125 127.00015625 -82.48828125 126.66015625 C-82.48828125 126.00015625 -82.48828125 125.34015625 -82.48828125 124.66015625 C-83.02453125 124.45390625 -83.56078125 124.24765625 -84.11328125 124.03515625 C-87.40806134 122.12765199 -90.08191753 119.61196241 -92.48828125 116.66015625 C-92.48828125 116.00015625 -92.48828125 115.34015625 -92.48828125 114.66015625 C-93.97328125 114.16515625 -93.97328125 114.16515625 -95.48828125 113.66015625 C-95.48828125 113.00015625 -95.48828125 112.34015625 -95.48828125 111.66015625 C-96.97328125 111.16515625 -96.97328125 111.16515625 -98.48828125 110.66015625 C-98.48828125 110.00015625 -98.48828125 109.34015625 -98.48828125 108.66015625 C-99.29265625 108.35078125 -99.29265625 108.35078125 -100.11328125 108.03515625 C-103.40806134 106.12765199 -106.08191753 103.61196241 -108.48828125 100.66015625 C-108.48828125 100.00015625 -108.48828125 99.34015625 -108.48828125 98.66015625 C-109.47828125 98.33015625 -110.46828125 98.00015625 -111.48828125 97.66015625 C-111.48828125 97.00015625 -111.48828125 96.34015625 -111.48828125 95.66015625 C-112.06578125 95.41265625 -112.64328125 95.16515625 -113.23828125 94.91015625 C-115.89904976 93.43195152 -117.62384669 92.07701586 -119.48828125 89.66015625 C-119.48828125 87.03515625 -119.48828125 87.03515625 -118.48828125 84.66015625 C-116.48828125 83.53515625 -116.48828125 83.53515625 -114.48828125 82.66015625 C-114.15828125 81.67015625 -113.82828125 80.68015625 -113.48828125 79.66015625 C-112.82828125 79.66015625 -112.16828125 79.66015625 -111.48828125 79.66015625 C-111.15828125 78.67015625 -110.82828125 77.68015625 -110.48828125 76.66015625 C-109.82828125 76.66015625 -109.16828125 76.66015625 -108.48828125 76.66015625 C-108.15828125 75.67015625 -107.82828125 74.68015625 -107.48828125 73.66015625 C-106.82828125 73.66015625 -106.16828125 73.66015625 -105.48828125 73.66015625 C-105.22015625 73.06203125 -104.95203125 72.46390625 -104.67578125 71.84765625 C-103.48910719 69.66167771 -102.39229012 68.24683031 -100.48828125 66.66015625 C-99.82828125 66.66015625 -99.16828125 66.66015625 -98.48828125 66.66015625 C-97.99328125 65.17515625 -97.99328125 65.17515625 -97.48828125 63.66015625 C-96.82828125 63.66015625 -96.16828125 63.66015625 -95.48828125 63.66015625 C-94.99328125 62.17515625 -94.99328125 62.17515625 -94.48828125 60.66015625 C-93.82828125 60.66015625 -93.16828125 60.66015625 -92.48828125 60.66015625 C-91.82828125 59.34015625 -91.16828125 58.02015625 -90.48828125 56.66015625 C-87.9384577 57.79341116 -86.13649911 58.95917107 -83.98828125 60.78515625 C-81.47578125 63.06015625 -81.47578125 63.06015625 -77.48828125 62.66015625 C-78.06412557 60.27451548 -78.7105572 57.99332841 -79.48828125 55.66015625 C-80.47828125 55.33015625 -81.46828125 55.00015625 -82.48828125 54.66015625 C-83.30078125 52.78515625 -83.30078125 52.78515625 -83.48828125 50.66015625 C-82.82828125 49.67015625 -82.16828125 48.68015625 -81.48828125 47.66015625 C-80.82828125 47.66015625 -80.16828125 47.66015625 -79.48828125 47.66015625 C-79.15828125 46.67015625 -78.82828125 45.68015625 -78.48828125 44.66015625 C-76.82612857 43.32119993 -75.15864518 41.98885483 -73.48828125 40.66015625 C-72.5702055 39.59560687 -71.67419612 38.51164385 -70.80078125 37.41015625 C-70.03765625 36.50265625 -69.27453125 35.59515625 -68.48828125 34.66015625 C-67.82828125 34.66015625 -67.16828125 34.66015625 -66.48828125 34.66015625 C-66.15828125 33.67015625 -65.82828125 32.68015625 -65.48828125 31.66015625 C-64.82828125 31.66015625 -64.16828125 31.66015625 -63.48828125 31.66015625 C-63.15828125 30.67015625 -62.82828125 29.68015625 -62.48828125 28.66015625 C-61.82828125 28.66015625 -61.16828125 28.66015625 -60.48828125 28.66015625 C-59.82828125 27.34015625 -59.16828125 26.02015625 -58.48828125 24.66015625 C-57.82828125 24.66015625 -57.16828125 24.66015625 -56.48828125 24.66015625 C-55.99328125 23.17515625 -55.99328125 23.17515625 -55.48828125 21.66015625 C-53.8303934 20.31592286 -52.16251808 18.98397142 -50.48828125 17.66015625 C-49.82828125 16.83515625 -49.16828125 16.01015625 -48.48828125 15.16015625 C-46.39086198 12.53838216 -44.1139107 10.7330216 -41.48828125 8.66015625 C-40.82828125 7.67015625 -40.16828125 6.68015625 -39.48828125 5.66015625 C-38.82828125 5.66015625 -38.16828125 5.66015625 -37.48828125 5.66015625 C-37.15828125 4.67015625 -36.82828125 3.68015625 -36.48828125 2.66015625 C-26.30227021 -7.21718779 -11.74040834 -6.63043088 0 0 Z " fill="#0A0A0A" transform="translate(407.48828125,72.33984375)"/>
<path d="M0 0 C2.54982355 1.13325491 4.35178214 2.29901482 6.5 4.125 C9.0125 6.4 9.0125 6.4 13 6 C12.49396008 3.83125748 12.00016187 2.00032373 11 0 C14.81684226 1.55500981 17.19195732 4.03595495 20 7 C19.67 7.66 19.34 8.32 19 9 C16.525 8.505 16.525 8.505 14 8 C14.309375 8.928125 14.61875 9.85625 14.9375 10.8125 C15.625 12.875 16.3125 14.9375 17 17 C17.99 17.33 18.98 17.66 20 18 C20 18.66 20 19.32 20 20 C20.99 20.33 21.98 20.66 23 21 C23 21.66 23 22.32 23 23 C24.32 23.66 25.64 24.32 27 25 C27 25.66 27 26.32 27 27 C27.99 27.33 28.98 27.66 30 28 C30 28.66 30 29.32 30 30 C30.99 30.33 31.98 30.66 33 31 C33 31.66 33 32.32 33 33 C33.99 33.33 34.98 33.66 36 34 C36 34.66 36 35.32 36 36 C36.598125 36.268125 37.19625 36.53625 37.8125 36.8125 C39.99847854 37.99917406 41.41332594 39.09599113 43 41 C43 41.66 43 42.32 43 43 C44.485 43.495 44.485 43.495 46 44 C46 44.66 46 45.32 46 46 C47.485 46.495 47.485 46.495 49 47 C49 47.66 49 48.32 49 49 C50.485 49.495 50.485 49.495 52 50 C52 50.66 52 51.32 52 52 C53.485 52.495 53.485 52.495 55 53 C57.1875 54.9375 57.1875 54.9375 59 57 C59 57.66 59 58.32 59 59 C60.485 59.495 60.485 59.495 62 60 C63.35386936 61.65002828 64.68678142 63.3174387 66 65 C70.03154236 67.68769491 73.26208799 67.79642432 78 67 C81.33738982 64.91328769 81.33738982 64.91328769 84 62 C85.1446875 60.88625 85.1446875 60.88625 86.3125 59.75 C87.6428125 58.38875 87.6428125 58.38875 89 57 C89.71671875 56.29359375 90.4334375 55.5871875 91.171875 54.859375 C95.02539549 51.05622733 98.70541256 47.30830665 102 43 C103.625 41.1875 103.625 41.1875 105 40 C105.66 40 106.32 40 107 40 C107.33 39.01 107.66 38.02 108 37 C112.28806873 37.47645208 114.26647487 38.65902484 117 42 C117 42.66 117 43.32 117 44 C117.66 44 118.32 44 119 44 C120.35386936 45.65002828 121.68678142 47.3174387 123 49 C123.66 49.33 124.32 49.66 125 50 C125 50.66 125 51.32 125 52 C125.598125 52.268125 126.19625 52.53625 126.8125 52.8125 C128.99847854 53.99917406 130.41332594 55.09599113 132 57 C132 57.66 132 58.32 132 59 C132.556875 59.226875 133.11375 59.45375 133.6875 59.6875 C136.63246684 61.35896766 138.68156544 63.55276352 141 66 C139.69386058 69.91841827 138.16870152 72.32640809 135 75 C134.34 75 133.68 75 133 75 C132.67 75.99 132.34 76.98 132 78 C131.34 78 130.68 78 130 78 C129.66125854 78.82769897 129.66125854 78.82769897 129.31567383 79.67211914 C127.60228171 82.70370084 125.42571825 84.79774859 122.94921875 87.24609375 C122.45339798 87.73908463 121.95757721 88.2320755 121.44673157 88.74000549 C119.86497269 90.31061396 118.27641315 91.87413286 116.6875 93.4375 C115.63039807 94.48456052 114.57375264 95.53208213 113.51757812 96.58007812 C111.56359322 98.51778796 109.60653087 100.45218063 107.6472168 102.38452148 C102.67365822 107.29333759 102.67365822 107.29333759 97.8125 112.3125 C96 114 96 114 94 114 C93.505 115.485 93.505 115.485 93 117 C92.34 117 91.68 117 91 117 C91 117.66 91 118.32 91 119 C82.48029291 123.9832249 74.03021894 125.12086576 64.3671875 122.8671875 C60.34939941 121.39532454 56.98258106 119.06045524 54 116 C53.67 115.01 53.34 114.02 53 113 C52.44022461 112.72349609 51.88044922 112.44699219 51.30371094 112.16210938 C48.02594901 110.50863897 45.69888284 107.98419051 43.140625 105.40625 C42.59138367 104.85892212 42.04214233 104.31159424 41.47625732 103.74768066 C40.32074141 102.5935222 39.16773315 101.43684833 38.01708984 100.27783203 C36.249265 98.49926054 34.4709787 96.73165237 32.69140625 94.96484375 C31.56967029 93.84178692 30.44855449 92.71811024 29.328125 91.59375 C28.79382874 91.0635022 28.25953247 90.53325439 27.70904541 89.98693848 C24 86.22993854 24 86.22993854 24 84 C23.43796875 83.7628125 22.8759375 83.525625 22.296875 83.28125 C19.48105958 81.71052303 17.52044584 79.78528536 15.25 77.5 C14.45078125 76.7059375 13.6515625 75.911875 12.828125 75.09375 C11 73 11 73 11 71 C10.01 70.67 9.02 70.34 8 70 C8 69.34 8 68.68 8 68 C7.46375 67.79375 6.9275 67.5875 6.375 67.375 C3.08021991 65.46749574 0.40636372 62.95180616 -2 60 C-2 59.34 -2 58.68 -2 58 C-3.485 57.505 -3.485 57.505 -5 57 C-5 56.34 -5 55.68 -5 55 C-6.485 54.505 -6.485 54.505 -8 54 C-8 53.34 -8 52.68 -8 52 C-8.53625 51.79375 -9.0725 51.5875 -9.625 51.375 C-12.91978009 49.46749574 -15.59363628 46.95180616 -18 44 C-18 43.34 -18 42.68 -18 42 C-18.99 41.67 -19.98 41.34 -21 41 C-21 40.34 -21 39.68 -21 39 C-21.5775 38.7525 -22.155 38.505 -22.75 38.25 C-25.41076851 36.77179527 -27.13556544 35.41685961 -29 33 C-29 30.375 -29 30.375 -28 28 C-26 26.875 -26 26.875 -24 26 C-23.67 25.01 -23.34 24.02 -23 23 C-22.34 23 -21.68 23 -21 23 C-20.67 22.01 -20.34 21.02 -20 20 C-19.34 20 -18.68 20 -18 20 C-17.67 19.01 -17.34 18.02 -17 17 C-16.34 17 -15.68 17 -15 17 C-14.731875 16.401875 -14.46375 15.80375 -14.1875 15.1875 C-13.00082594 13.00152146 -11.90400887 11.58667406 -10 10 C-9.34 10 -8.68 10 -8 10 C-7.67 9.01 -7.34 8.02 -7 7 C-6.34 7 -5.68 7 -5 7 C-4.67 6.01 -4.34 5.02 -4 4 C-3.34 4 -2.68 4 -2 4 C-1.34 2.68 -0.68 1.36 0 0 Z " fill="#F73E04" transform="translate(317,129)"/>
<path d="M0 0 C2.54982355 1.13325491 4.35178214 2.29901482 6.5 4.125 C9.0125 6.4 9.0125 6.4 13 6 C12.49396008 3.83125748 12.00016187 2.00032373 11 0 C14.81684226 1.55500981 17.19195732 4.03595495 20 7 C19.67 7.66 19.34 8.32 19 9 C16.525 8.505 16.525 8.505 14 8 C14.4640625 9.3921875 14.4640625 9.3921875 14.9375 10.8125 C15.625 12.875 16.3125 14.9375 17 17 C17.99 17.33 18.98 17.66 20 18 C20 18.66 20 19.32 20 20 C20.99 20.33 21.98 20.66 23 21 C23 21.66 23 22.32 23 23 C24.32 23.66 25.64 24.32 27 25 C27 25.66 27 26.32 27 27 C27.99 27.33 28.98 27.66 30 28 C30 28.66 30 29.32 30 30 C30.99 30.33 31.98 30.66 33 31 C33 31.66 33 32.32 33 33 C33.99 33.33 34.98 33.66 36 34 C36 34.66 36 35.32 36 36 C37.32 36.66 38.64 37.32 40 38 C39.01 38.33 38.02 38.66 37 39 C36.01 38.505 36.01 38.505 35 38 C35 37.01 35 36.02 35 35 C34.01 34.67 33.02 34.34 32 34 C32 33.34 32 32.68 32 32 C29.66785852 30.79371992 27.50357861 29.8345262 25 29 C23.96210419 27.35666496 22.96432076 25.68756133 22 24 C20.66621425 22.1645201 20.66621425 22.1645201 19 21 C17.68 21 16.36 21 15 21 C14.505 18.525 14.505 18.525 14 16 C13.01 15.67 12.02 15.34 11 15 C10.3125 12.9375 10.3125 12.9375 10 11 C8.68 11 7.36 11 6 11 C6 9.68 6 8.36 6 7 C5.01 6.67 4.02 6.34 3 6 C3.33 5.34 3.66 4.68 4 4 C2.68 4 1.36 4 0 4 C-1.26569265 5.4604146 -2.52622713 6.92806435 -3.703125 8.4609375 C-5.5140105 10.61000042 -7.46204793 11.83391391 -10 13 C-10.66 12.67 -11.32 12.34 -12 12 C-11.0409375 11.5978125 -11.0409375 11.5978125 -10.0625 11.1875 C-7.66868314 10.11332248 -7.66868314 10.11332248 -7 7 C-6.34 7 -5.68 7 -5 7 C-4.67 6.01 -4.34 5.02 -4 4 C-3.34 4 -2.68 4 -2 4 C-1.34 2.68 -0.68 1.36 0 0 Z " fill="#F0B32B" transform="translate(317,129)"/>
<path d="M0 0 C1.32 0 2.64 0 4 0 C2.58556941 4.53935934 0.07209682 7.3245696 -3.26953125 10.5625 C-3.78754807 11.07627197 -4.30556488 11.59004395 -4.83927917 12.11938477 C-6.49007548 13.75347219 -8.15098375 15.37682087 -9.8125 17 C-10.91800926 18.09044518 -12.02283412 19.18158466 -13.12695312 20.2734375 C-15.16741911 22.28949897 -17.21184969 24.30134736 -19.26098633 26.30859375 C-22.61335661 29.60269572 -25.95752139 32.89795119 -29.1875 36.3125 C-31 38 -31 38 -33 38 C-33.33 38.99 -33.66 39.98 -34 41 C-34.66 41 -35.32 41 -36 41 C-36 41.66 -36 42.32 -36 43 C-42.16637941 46.60675022 -47.77987649 48.33634116 -55 48 C-57.328125 47.0078125 -57.328125 47.0078125 -59 46 C-57.97519531 45.89042969 -56.95039063 45.78085938 -55.89453125 45.66796875 C-54.53378133 45.50843255 -53.17310806 45.3482416 -51.8125 45.1875 C-51.13896484 45.11724609 -50.46542969 45.04699219 -49.77148438 44.97460938 C-44.75447798 44.36277933 -41.02211041 43.25802329 -37.59375 39.4296875 C-37.2328125 38.91664063 -36.871875 38.40359375 -36.5 37.875 C-34 35 -34 35 -31.1875 34.125 C-30.465625 34.08375 -29.74375 34.0425 -29 34 C-28.67 32.68 -28.34 31.36 -28 30 C-27.34 30 -26.68 30 -26 30 C-25.7525 29.4225 -25.505 28.845 -25.25 28.25 C-23.82800599 25.69041079 -22.09561473 24.03012677 -20 22 C-19.34 21.01 -18.68 20.02 -18 19 C-17.01 19 -16.02 19 -15 19 C-15 18.34 -15 17.68 -15 17 C-14.34 17 -13.68 17 -13 17 C-12.8453125 16.071875 -12.8453125 16.071875 -12.6875 15.125 C-12 13 -12 13 -9 11 C-8.54625 10.38125 -8.0925 9.7625 -7.625 9.125 C-6 7 -6 7 -3.375 4.9375 C-0.75315259 3.15146691 -0.75315259 3.15146691 0 0 Z " fill="#EC1E18" transform="translate(444,205)"/>
<path d="M0 0 C0.33 0.99 0.66 1.98 1 3 C-0.41525178 4.58459815 -1.8322642 6.16762391 -3.25 7.75 C-4.43335938 9.07257813 -4.43335938 9.07257813 -5.640625 10.421875 C-7.70592672 12.67866165 -9.81735064 14.85739926 -12 17 C-10.47182124 19.75072177 -9.04684208 21.95315792 -6.8125 24.1875 C-6.214375 24.785625 -5.61625 25.38375 -5 26 C-5 26.66 -5 27.32 -5 28 C-2.525 28.99 -2.525 28.99 0 30 C0 30.66 0 31.32 0 32 C0.66 32 1.32 32 2 32 C1.34 33.32 0.68 34.64 0 36 C-1.70884005 34.37660195 -3.37446717 32.70680947 -5 31 C-5 30.34 -5 29.68 -5 29 C-5.99 28.67 -6.98 28.34 -8 28 C-8 27.34 -8 26.68 -8 26 C-8.5775 25.7525 -9.155 25.505 -9.75 25.25 C-12.41076851 23.77179527 -14.13556544 22.41685961 -16 20 C-16 17.375 -16 17.375 -15 15 C-13 13.875 -13 13.875 -11 13 C-10.67 12.01 -10.34 11.02 -10 10 C-9.34 10 -8.68 10 -8 10 C-7.67 9.01 -7.34 8.02 -7 7 C-6.34 7 -5.68 7 -5 7 C-4.67 6.01 -4.34 5.02 -4 4 C-3.34 4 -2.68 4 -2 4 C-1.34 2.68 -0.68 1.36 0 0 Z " fill="#EE8A2C" transform="translate(304,142)"/>
<path d="M0 0 C2.54982355 1.13325491 4.35178214 2.29901482 6.5 4.125 C9.0125 6.4 9.0125 6.4 13 6 C12.49396008 3.83125748 12.00016187 2.00032373 11 0 C14.81684226 1.55500981 17.19195732 4.03595495 20 7 C19.67 7.66 19.34 8.32 19 9 C16.525 8.505 16.525 8.505 14 8 C13.67 9.32 13.34 10.64 13 12 C12.0925 11.38125 11.185 10.7625 10.25 10.125 C7.85051183 8.55610389 5.59038388 7.19556179 3 6 C3.33 5.34 3.66 4.68 4 4 C2.68 4 1.36 4 0 4 C-1.26569265 5.4604146 -2.52622713 6.92806435 -3.703125 8.4609375 C-5.5140105 10.61000042 -7.46204793 11.83391391 -10 13 C-10.66 12.67 -11.32 12.34 -12 12 C-11.0409375 11.5978125 -11.0409375 11.5978125 -10.0625 11.1875 C-7.66868314 10.11332248 -7.66868314 10.11332248 -7 7 C-6.34 7 -5.68 7 -5 7 C-4.67 6.01 -4.34 5.02 -4 4 C-3.34 4 -2.68 4 -2 4 C-1.34 2.68 -0.68 1.36 0 0 Z " fill="#F5E03D" transform="translate(317,129)"/>
<path d="M0 0 C4.28806873 0.47645208 6.26647487 1.65902484 9 5 C9 5.66 9 6.32 9 7 C9.66 7.33 10.32 7.66 11 8 C8.03824877 7.38722388 6.61941217 6.74627478 4 5 C4 4.34 4 3.68 4 3 C3.34 3 2.68 3 2 3 C2 3.99 2 4.98 2 6 C1.236875 6.2475 0.47375 6.495 -0.3125 6.75 C-3.2364045 8.10995558 -4.30004356 9.31585826 -6 12 C-6.99 11.67 -7.98 11.34 -9 11 C-9 10.34 -9 9.68 -9 9 C-7.34997172 7.64613064 -5.6825613 6.31321858 -4 5 C-3.67 4.34 -3.34 3.68 -3 3 C-2.34 3 -1.68 3 -1 3 C-0.67 2.01 -0.34 1.02 0 0 Z " fill="#EE7712" transform="translate(425,166)"/>
<path d="M0 0 C0.33 0.99 0.66 1.98 1 3 C-0.5159375 4.2375 -0.5159375 4.2375 -2.0625 5.5 C-5.39165804 8.34975928 -8.19261522 11.43068369 -11.0234375 14.765625 C-14.80713829 19.04285198 -18.92686142 23.00062047 -23 27 C-23.66 26.67 -24.32 26.34 -25 26 C-24.01 24.515 -24.01 24.515 -23 23 C-22.34 23 -21.68 23 -21 23 C-20.67 22.01 -20.34 21.02 -20 20 C-18.34997172 18.64613064 -16.6825613 17.31321858 -15 16 C-14.34 15.01 -13.68 14.02 -13 13 C-12.34 13 -11.68 13 -11 13 C-10.62875 12.071875 -10.62875 12.071875 -10.25 11.125 C-8.77229238 8.61289704 -7.56044823 8.23892656 -5 7 C-4.67 6.01 -4.34 5.02 -4 4 C-2.70644173 2.62804426 -1.37701298 1.28817344 0 0 Z " fill="#505050" transform="translate(387,132)"/>
<path d="M0 0 C0.66 0 1.32 0 2 0 C2 1.32 2 2.64 2 4 C2.66 4 3.32 4 4 4 C5.4375 5.49609375 5.4375 5.49609375 7 7.4375 C9.14525044 10.15188238 9.14525044 10.15188238 12 12 C12 12.66 12 13.32 12 14 C12.61875 14.20625 13.2375 14.4125 13.875 14.625 C16.84653645 16.54775888 17.13024659 18.66594527 18 22 C13.52382557 18.31958991 9.24285899 14.45034743 5.0625 10.4375 C4.56580811 9.97883545 4.06911621 9.5201709 3.55737305 9.04760742 C1.20272295 6.74891266 0.05407574 5.48534642 -0.31640625 2.16015625 C-0.21199219 1.44730469 -0.10757812 0.73445312 0 0 Z " fill="#E80E0D" transform="translate(348,217)"/>
<path d="M0 0 C-0.33 0.99 -0.66 1.98 -1 3 C-1.66 3 -2.32 3 -3 3 C-3 3.66 -3 4.32 -3 5 C-9.16637941 8.60675022 -14.77987649 10.33634116 -22 10 C-24.328125 9.0078125 -24.328125 9.0078125 -26 8 C-24.97519531 7.89042969 -23.95039063 7.78085938 -22.89453125 7.66796875 C-21.53378133 7.50843255 -20.17310806 7.3482416 -18.8125 7.1875 C-18.13896484 7.11724609 -17.46542969 7.04699219 -16.77148438 6.97460938 C-11.62895189 6.34747127 -7.99213259 5.06875308 -4.375 1.3125 C-3 0 -3 0 0 0 Z " fill="#E72E2D" transform="translate(411,243)"/>
<path d="M0 0 C-1.39910413 4.52698636 -3.5615174 6.75155982 -7.125 9.8125 C-8.03507812 10.60269531 -8.94515625 11.39289063 -9.8828125 12.20703125 C-10.58148438 12.79871094 -11.28015625 13.39039063 -12 14 C-12.99 13.34 -13.98 12.68 -15 12 C-14.48050781 11.55269531 -13.96101563 11.10539063 -13.42578125 10.64453125 C-8.64019924 6.49728023 -8.64019924 6.49728023 -4.125 2.0625 C-2 0 -2 0 0 0 Z " fill="#EB500B" transform="translate(417,177)"/>
<path d="M0 0 C0.66 0.33 1.32 0.66 2 1 C-0.76266748 3.82062242 -3.53646053 6.63004214 -6.3125 9.4375 C-7.09818359 10.23994141 -7.88386719 11.04238281 -8.69335938 11.86914062 C-9.45068359 12.63291016 -10.20800781 13.39667969 -10.98828125 14.18359375 C-11.68477783 14.89056396 -12.38127441 15.59753418 -13.09887695 16.32592773 C-15 18 -15 18 -18 19 C-18 18.34 -18 17.68 -18 17 C-16.33333333 15.66666667 -14.66666667 14.33333333 -13 13 C-12.08171842 11.93562816 -11.1855845 10.85174949 -10.3125 9.75 C-9.549375 8.8425 -8.78625 7.935 -8 7 C-7.34 7 -6.68 7 -6 7 C-5.67 6.01 -5.34 5.02 -5 4 C-3.37667033 2.61423077 -1.71275535 1.27358732 0 0 Z " fill="#5A5A5A" transform="translate(376,71)"/>
<path d="M0 0 C0.33 0.99 0.66 1.98 1 3 C-0.43334578 4.62866544 -1.87182979 6.25280994 -3.3125 7.875 C-4.51326172 9.23238281 -4.51326172 9.23238281 -5.73828125 10.6171875 C-8 13 -8 13 -11 15 C-11.99 14.67 -12.98 14.34 -14 14 C-13.01 13.67 -12.02 13.34 -11 13 C-10.67 12.01 -10.34 11.02 -10 10 C-9.34 10 -8.68 10 -8 10 C-7.67 9.01 -7.34 8.02 -7 7 C-6.34 7 -5.68 7 -5 7 C-4.67 6.01 -4.34 5.02 -4 4 C-3.34 4 -2.68 4 -2 4 C-1.34 2.68 -0.68 1.36 0 0 Z " fill="#F5B137" transform="translate(304,142)"/>
<path d="M0 0 C1.46573934 0.90477737 2.92235756 1.82434141 4.375 2.75 C5.18710937 3.26046875 5.99921875 3.7709375 6.8359375 4.296875 C9.08555679 6.0673335 9.95906848 7.36907419 11 10 C8.0625 9.25 8.0625 9.25 5 8 C4.125 5.875 4.125 5.875 4 4 C2.68 4 1.36 4 0 4 C0 2.68 0 1.36 0 0 Z " fill="#F1CC28" transform="translate(323,136)"/>
<path d="M0 0 C0.66796875 1.79296875 0.66796875 1.79296875 1 4 C-0.07421875 5.73828125 -0.07421875 5.73828125 -1.6875 7.3125 C-2.46673828 8.11107422 -2.46673828 8.11107422 -3.26171875 8.92578125 C-5 10 -5 10 -7.20703125 9.66796875 C-7.79871094 9.44753906 -8.39039063 9.22710937 -9 9 C-8.67 8.34 -8.34 7.68 -8 7 C-5.4375 6.375 -5.4375 6.375 -3 6 C-2.67 4.68 -2.34 3.36 -2 2 C-1.34 2 -0.68 2 0 2 C0 1.34 0 0.68 0 0 Z " fill="#E91616" transform="translate(418,233)"/>
<path d="M0 0 C4.28806873 0.47645208 6.26647487 1.65902484 9 5 C9 5.66 9 6.32 9 7 C9.66 7.33 10.32 7.66 11 8 C8.03824877 7.38722388 6.61941217 6.74627478 4 5 C4 4.34 4 3.68 4 3 C2.35 2.67 0.7 2.34 -1 2 C-0.67 1.34 -0.34 0.68 0 0 Z " fill="#F29D3D" transform="translate(425,166)"/>
<path d="M0 0 C0.66 0 1.32 0 2 0 C2 0.66 2 1.32 2 2 C4.475 2.99 4.475 2.99 7 4 C7 4.66 7 5.32 7 6 C7.66 6 8.32 6 9 6 C8.34 7.32 7.68 8.64 7 10 C6.01524786 8.90081184 5.03739527 7.7954398 4.0625 6.6875 C3.51722656 6.07261719 2.97195313 5.45773438 2.41015625 4.82421875 C1 3 1 3 0 0 Z " fill="#EC742F" transform="translate(297,168)"/>
<path d="M0 0 C2.74148672 0.37047118 4.58593199 0.68587944 6.8125 2.375 C8 4 8 4 8 7 C8.66 7.33 9.32 7.66 10 8 C7 8 7 8 4.8125 6.125 C3 4 3 4 3 2 C2.01 1.67 1.02 1.34 0 1 C0 0.67 0 0.34 0 0 Z " fill="#EA4E40" transform="translate(325,198)"/>
<path d="M0 0 C0.66 0.33 1.32 0.66 2 1 C-1.00517424 4.86379545 -3.45081065 7.90983192 -8 10 C-8.66 9.67 -9.32 9.34 -10 9 C-9.0409375 8.5978125 -9.0409375 8.5978125 -8.0625 8.1875 C-5.66868314 7.11332248 -5.66868314 7.11332248 -5 4 C-4.34 4 -3.68 4 -3 4 C-2.67 3.01 -2.34 2.02 -2 1 C-1.34 0.67 -0.68 0.34 0 0 Z " fill="#F8D239" transform="translate(315,132)"/>
<path d="M0 0 C-1.5277867 3.43752007 -3.50181056 6.18953688 -6 9 C-6.66 9 -7.32 9 -8 9 C-7.64598897 5.81390075 -7.16972964 4.20933322 -5.125 1.6875 C-3 0 -3 0 0 0 Z " fill="#EA2525" transform="translate(427,227)"/>
<path d="M0 0 C0.66 0.33 1.32 0.66 2 1 C1.04882866 2.1725131 0.08882991 3.33787015 -0.875 4.5 C-1.67550781 5.47453125 -1.67550781 5.47453125 -2.4921875 6.46875 C-2.98976563 6.9740625 -3.48734375 7.479375 -4 8 C-4.66 8 -5.32 8 -6 8 C-6.33 8.99 -6.66 9.98 -7 11 C-7.99 11.33 -8.98 11.66 -10 12 C-10 11.34 -10 10.68 -10 10 C-8.34614767 8.65080468 -6.678298 7.31866272 -5 6 C-4.34 5.01 -3.68 4.02 -3 3 C-2.34 3 -1.68 3 -1 3 C-0.67 2.01 -0.34 1.02 0 0 Z " fill="#676767" transform="translate(342,104)"/>
<path d="M0 0 C0 3 0 3 -1.96875 5.04296875 C-2.8040625 5.75066406 -3.639375 6.45835938 -4.5 7.1875 C-5.3353125 7.90292969 -6.170625 8.61835937 -7.03125 9.35546875 C-7.6809375 9.89816406 -8.330625 10.44085938 -9 11 C-9 10.01 -9 9.02 -9 8 C-8.01 7.67 -7.02 7.34 -6 7 C-5.67 6.01 -5.34 5.02 -5 4 C-3.37667033 2.61423077 -1.71275535 1.27358732 0 0 Z " fill="#5D5D5D" transform="translate(357,90)"/>
<path d="M0 0 C2.3125 0.1875 2.3125 0.1875 5 1 C6.875 3.4375 6.875 3.4375 8 6 C7.67 6.66 7.34 7.32 7 8 C5.83035398 6.8572081 4.66435444 5.71068285 3.5 4.5625 C2.8503125 3.92441406 2.200625 3.28632813 1.53125 2.62890625 C0 1 0 1 0 0 Z " fill="#E91E20" transform="translate(358,231)"/>
<path d="M0 0 C3.81684226 1.55500981 6.19195732 4.03595495 9 7 C8.67 7.66 8.34 8.32 8 9 C5.625 8.3125 5.625 8.3125 3 7 C1.75 4.5 1.75 4.5 1 2 C0.67 1.34 0.34 0.68 0 0 Z " fill="#AEAEAA" transform="translate(328,129)"/>
<path d="M0 0 C2 0 2 0 3.625 1.375 C5 3 5 3 5 5 C5.99 5.33 6.98 5.66 8 6 C8 6.33 8 6.66 8 7 C6.35 7 4.7 7 3 7 C2.67 6.01 2.34 5.02 2 4 C1.34 3.67 0.68 3.34 0 3 C0 2.01 0 1.02 0 0 Z " fill="#F37C26" transform="translate(437,176)"/>
<path d="M0 0 C-0.66 0 -1.32 0 -2 0 C-2.33 1.32 -2.66 2.64 -3 4 C-5 2.625 -5 2.625 -7 1 C-7 0.34 -7 -0.32 -7 -1 C-3.51418144 -2.2020064 -3.32007656 -2.21338437 0 0 Z " fill="#E8E0A2" transform="translate(333,137)"/>
<path d="M0 0 C2 1.375 2 1.375 4 3 C4 3.66 4 4.32 4 5 C5.32 5.66 6.64 6.32 8 7 C6.68 7.33 5.36 7.66 4 8 C3.896875 7.360625 3.79375 6.72125 3.6875 6.0625 C3.460625 5.381875 3.23375 4.70125 3 4 C2.01 3.67 1.02 3.34 0 3 C0 2.01 0 1.02 0 0 Z " fill="#F37E3A" transform="translate(445,183)"/>
<path d="M0 0 C5.75 1.625 5.75 1.625 8 5 C7.01 5.33 6.02 5.66 5 6 C4.67 5.01 4.34 4.02 4 3 C1.99983534 1.79117904 1.99983534 1.79117904 0 1 C0 0.67 0 0.34 0 0 Z " fill="#EA6E3C" transform="translate(305,178)"/>
<path d="M0 0 C1.98 0.99 1.98 0.99 4 2 C4 2.66 4 3.32 4 4 C5.32 4.66 6.64 5.32 8 6 C7.01 6.33 6.02 6.66 5 7 C4.34 6.67 3.68 6.34 3 6 C3 5.01 3 4.02 3 3 C2.01 2.67 1.02 2.34 0 2 C0 1.34 0 0.68 0 0 Z " fill="#EC9C39" transform="translate(349,161)"/>
<path d="M0 0 C-3.99560608 2.83022097 -7.42737323 1.76210446 -12 1 C-12 0.67 -12 0.34 -12 0 C-7.74433453 -1.16063604 -4.3164922 -0.76173392 0 0 Z " fill="#D40E0D" transform="translate(397,251)"/>
<path d="M0 0 C0.99 0.33 1.98 0.66 3 1 C2.01 2.485 2.01 2.485 1 4 C0.34 4 -0.32 4 -1 4 C-1.33 4.99 -1.66 5.98 -2 7 C-2.66 6.01 -3.32 5.02 -4 4 C-2.68 3.67 -1.36 3.34 0 3 C0 2.01 0 1.02 0 0 Z " fill="#EB5941" transform="translate(451,200)"/>
<path d="M0 0 C0.33 0.99 0.66 1.98 1 3 C-0.65 4.65 -2.3 6.3 -4 8 C-4.66 7.67 -5.32 7.34 -6 7 C-4.02 4.69 -2.04 2.38 0 0 Z " fill="#464646" transform="translate(387,132)"/>
</svg>
